<svg height="480pt" viewBox="0 0 480 480.00001" width="480pt" xmlns="http://www.w3.org/2000/svg"><path d="m408 472h-128l-16-304h160zm0 0" fill="#348fd9"/><path d="m376 168-16 304h48l16-304zm0 0" fill="#3086cd"/><path d="m248 136h192v32h-192zm0 0" fill="#e0e0de"/><path d="m328 8h32v128h-32zm0 0" fill="#348fd9"/><path d="m422.734375 192 1.265625-24h-160l1.265625 24zm0 0" fill="#3086cd"/><path d="m304 143.527344c-4.699219.007812-9.289062 1.398437-13.199219 4-.722656-.910156-1.375-1.878906-2.113281-2.773438 6.636719-5.941406 9.4375-15.070312 7.273438-23.710937-2.160157-8.640625-8.929688-15.371094-17.582032-17.484375-8.652344-2.117188-17.761718.734375-23.667968 7.402344.824218-2.394532 1.257812-4.902344 1.289062-7.433594-.144531-12.050782-9.207031-22.125-21.175781-23.542969-11.964844-1.417969-23.128907 6.261719-26.089844 17.945313-.308594-.058594-.636719-.089844-.957031-.144532.070312-.746094.222656-1.457031.222656-2.21875 0-13.253906-10.746094-24-24-24s-24 10.746094-24 24c0 .761719.152344 1.472656.222656 2.21875-.320312.054688-.648437.085938-.957031.144532-2.960937-11.683594-14.125-19.363282-26.089844-17.945313-11.96875 1.417969-21.03125 11.492187-21.175781 23.542969.03125 2.527344.464844 5.027344 1.289062 7.417968-5.90625-6.667968-15.015624-9.519531-23.667968-7.40625-8.652344 2.117188-15.421875 8.847657-17.582032 17.488282-2.164062 8.640625.636719 17.769531 7.273438 23.707031-.738281.898437-1.390625 1.867187-2.113281 2.777344-7.367188-4.851563-16.800781-5.269531-24.570313-1.089844-7.769531 4.179687-12.617187 12.285156-12.628906 21.105469.484375 10.34375 6.640625 19.574218 16 24 0 .074218 2.9375.128906 8 .175781v24.296875h240v-24.296875c5.0625-.046875 8-.101563 8-.175781 9.359375-4.425782 15.515625-13.65625 16-24 0-13.253906-10.746094-24-24-24zm0 0" fill="#ffb531"/><path d="m304 143.527344c-4.699219.007812-9.289062 1.398437-13.199219 4-.722656-.910156-1.375-1.878906-2.113281-2.773438 6.636719-5.941406 9.4375-15.070312 7.273438-23.710937-2.160157-8.640625-8.929688-15.371094-17.582032-17.484375-8.652344-2.117188-17.761718.734375-23.667968 7.402344 1.558593-4.328126 1.707031-9.035157.425781-13.449219-43.617188 65.503906-131.335938 103.242187-174.296875 118.488281h223.160156v-24.296875c5.0625-.046875 8-.101563 8-.175781 9.359375-4.425782 15.515625-13.65625 16-24 0-13.253906-10.746094-24-24-24zm0 0" fill="#ffa912"/><path d="m240 160h-16c0-8.835938-7.164062-16-16-16v-16c17.671875 0 32 14.328125 32 32zm0 0" fill="#f27900"/><path d="m104 472h-40l-22.816406-263.199219c-.300782-6.46875 2.0625-12.777343 6.53125-17.464843 4.472656-4.683594 10.664062-7.335938 17.140625-7.335938 12.871093 0 23.386719 10.269531 23.695312 23.136719zm0 0" fill="#f35244"/><path d="m184 472h-40l-8-264.296875c-.003906-13.09375 10.609375-23.707031 23.703125-23.703125h.59375c13.09375-.003906 23.707031 10.609375 23.703125 23.703125zm0 0" fill="#f35244"/><path d="m264 472h-40l8-264.296875c-.003906-13.09375 10.609375-23.707031 23.703125-23.703125 6.382813 0 12.496094 2.574219 16.957031 7.140625 4.460938 4.570313 6.890625 10.742187 6.738282 17.125zm0 0" fill="#f35244"/><g fill="#e0e0de"><path d="m144 472h-40l-15.425781-263.734375c-.148438-6.382813 2.28125-12.554687 6.742187-17.125 4.457032-4.566406 10.570313-7.140625 16.957032-7.140625 6.289062-.007812 12.328124 2.484375 16.777343 6.933594 4.453125 4.445312 6.953125 10.480468 6.949219 16.769531zm0 0"/><path d="m224 472h-40v-264.296875c-.003906-13.09375 10.609375-23.707031 23.703125-23.703125h.59375c13.09375-.003906 23.707031 10.609375 23.703125 23.703125zm0 0"/><path d="m304 472h-40l15.449219-264.863281c.308593-12.867188 10.824219-23.136719 23.695312-23.136719 6.476563 0 12.667969 2.652344 17.140625 7.335938 4.46875 4.6875 6.832032 10.996093 6.53125 17.464843zm0 0"/></g><path d="m61.230469 440.097656 2.769531 31.902344h40l-4.128906-70.542969zm0 0" fill="#ea4a3b"/><path d="m140.632812 360.703125 3.367188 111.296875h40v-154.664062zm0 0" fill="#ea4a3b"/><path d="m230.078125 271.257812-6.078125 200.742188h40l14.535156-249.199219zm0 0" fill="#ea4a3b"/><path d="m99.886719 401.449219 4.113281 70.550781h40l-3.367188-111.296875zm0 0" fill="#d6d6d4"/><path d="m184 317.335938v154.664062h40l6.078125-200.742188zm0 0" fill="#d6d6d4"/><path d="m314.398438 186.953125-35.796876 35.808594-14.601562 249.238281h40l22.816406-263.199219c.402344-9.0625-4.425781-17.554687-12.417968-21.847656zm0 0" fill="#d6d6d4"/><path d="m248 272c0-22.089844-28.652344-40-64-40s-64 17.910156-64 40 28.652344 40 64 40 64-17.910156 64-40zm0 0" fill="#ffb531"/><path d="m220.726562 239.273438-67.71875 67.71875c9.980469 3.375 20.457032 5.066406 30.992188 5.007812 35.34375 0 64-17.910156 64-40 0-13.542969-10.792969-25.488281-27.273438-32.726562zm0 0" fill="#ffa912"/><path d="m328 472h-136l-24-24-24 24h-136v-128h320zm0 0" fill="#e0e0de"/><path d="m328 472h24l32.617188-78.28125c4.472656-10.730469 14.957031-17.71875 26.582031-17.71875 15.90625 0 28.800781 12.894531 28.800781 28.800781v67.199219h32v-128h-144zm0 0" fill="#bfbfbd"/><path d="m200 376h96v64h-96zm0 0" fill="#348fd9"/><path d="m40 376h96v64h-96zm0 0" fill="#f35244"/><path d="m52 440h84v-64h-20zm0 0" fill="#ea4a3b"/><path d="m212 440h84v-64h-20zm0 0" fill="#3086cd"/><path d="m416 472.425781 3.785156-72-16-.851562-3.378906 64.425781h-24.40625v16h32c4.257812.007812 7.773438-3.324219 8-7.574219zm0 0"/><path d="m32 168c.203125 7.652344 2.914062 15.023438 7.71875 20.984375-4.589844 6-6.890625 13.441406-6.488281 20.984375l9.601562 110.71875 15.9375-1.375-9.546875-110.402344c-.261718-5.28125 2.191406-10.335937 6.503906-13.398437 5.519532-3.953125 12.945313-3.953125 18.464844 0 .597656.421875 1.15625.898437 1.671875 1.417969 2.902344 2.8125 4.601563 6.644531 4.730469 10.6875l6.511719 112.871093h.0625l16-.945312-6.609375-110.824219v-.949219c.097656-4.894531 2.507812-9.449219 6.496094-12.28125 5.519531-3.957031 12.945312-3.957031 18.464843 0 4.136719 2.988281 6.558594 7.808594 6.480469 12.910157l.992188 32.800781c-10.246094 7.195312-16.535157 18.769531-16.992188 31.28125.597656 13.328125 7.664062 25.523437 18.929688 32.671875l.476562 15.09375 16-.492188-.183594-5.875c23.746094 8.804688 49.859375 8.804688 73.601563 0l-.183594 5.875 16 .492188.480469-15.09375c11.246094-7.160156 18.292968-19.355469 18.878906-32.671875-.464844-12.503907-6.75-24.070313-16.992188-31.257813l.992188-33.0625c-.011719-5.027344 2.410156-9.746094 6.496094-12.671875 4.792968-3.464843 11.121094-3.953125 16.386718-1.261719 5.265626 2.691407 8.578126 8.109376 8.574219 14.019532l-6.5625 111.28125 16 .945312h.066407l6.496093-111.289062c0-.160156 0-.855469 0-1.328125v-.078125c.089844-4.902344 2.503907-9.464844 6.503907-12.296875 5.492187-3.984375 12.929687-3.960938 18.398437.054687 1.105469.808594 2.113281 1.734375 3.007813 2.769532 2.21875 2.804687 3.417968 6.28125 3.410156 9.855468v.433594l-9.601563 110.71875 15.9375 1.375 9.597657-111.40625v-1.121094c-.011719-6.960937-2.308594-13.722656-6.542969-19.25.359375-.460937.800781-.878906 1.113281-1.359375.125-.152343.246094-.320312.367188-.488281 2.324218-3.371094 4.066406-7.109375 5.144531-11.0625h80.800781l-7.59375 143.574219 16 .851562 7.59375-144.425781h8.40625c4.417969 0 8-3.582031 8-8v-32c0-4.417969-3.582031-8-8-8h-72v-120c0-4.417969-3.582031-8-8-8h-32c-4.417969 0-8 3.582031-8 8v120h-16c0-10.027344-4.703125-19.476562-12.703125-25.527344-8.003906-6.046875-18.375-7.992187-28.023437-5.257812-2.382813-10.953125-10.324219-19.859375-20.929688-23.480469s-22.335938-1.429687-30.917969 5.777344c-5.789062-9.625-16.195312-15.507813-27.425781-15.507813s-21.636719 5.882813-27.425781 15.507813c-8.582031-7.207031-20.3125-9.398438-30.917969-5.777344s-18.546875 12.527344-20.929688 23.480469c-11.023437-3.09375-22.863281-.074219-31.058593 7.925781-8.195313 8-11.496094 19.761719-8.667969 30.859375-8.652344-.25-17.039062 3.007812-23.253906 9.035156-6.214844 6.023438-9.730469 14.308594-9.746094 22.964844zm112 40.160156c-.011719-5.027344 2.410156-9.746094 6.496094-12.671875 2.851562-2.0625 6.304687-3.121093 9.824218-3.007812 3.3125-.011719 6.539063 1.046875 9.199219 3.023437 4.078125 2.921875 6.492188 7.636719 6.480469 12.65625v16.640625c-10.757812.679688-21.324219 3.140625-31.273438 7.289063zm40 96.320313c-30.351562 0-56-14.65625-56-32s25.648438-32 56-32 56 14.65625 56 32-25.648438 32-56 32zm8-79.679688v-16.640625c-.011719-5.027344 2.410156-9.746094 6.496094-12.671875 2.851562-2.0625 6.304687-3.121093 9.824218-3.007812 8.542969.046875 15.496094 6.890625 15.679688 15.429687l-.726562 24.152344c-9.949219-4.136719-20.519532-6.589844-31.273438-7.261719zm240-64.800781h-97.136719c-1.617187-6.210938-5.074219-11.789062-9.917969-16h107.054688zm-96-144h16v112h-16zm-272 136c3.132812.015625 6.191406.949219 8.800781 2.6875 3.535157 2.324219 8.265625 1.492188 10.800781-1.894531l.796876-1.152344c.335937-.472656.664062-.929687 1.015624-1.359375 2.644532-3.226562 2.371094-7.9375-.628906-10.832031-3.09375-3.003907-4.820312-7.140625-4.785156-11.449219-.027344-6.539062 3.945312-12.433594 10.015625-14.859375 6.074219-2.429687 13.011719-.902344 17.503906 3.851563 2.5625 2.660156 6.613281 3.21875 9.800781 1.355468 3.1875-1.863281 4.683594-5.667968 3.625-9.203125-.570312-1.660156-.886718-3.390625-.945312-5.144531.117188-8.023438 6.15625-14.71875 14.125-15.65625s15.398438 4.167969 17.378906 11.945312c1.136719 4.128907 5.246094 6.699219 9.457032 5.917969 2.148437-.199219 4.125-1.261719 5.480468-2.941406 1.355469-1.679687 1.976563-3.835937 1.71875-5.976563 0-.074218-.175781-1.21875-.183594-1.289062-.308593-5.960938 2.722657-11.59375 7.867188-14.621094 5.140625-3.023437 11.542969-2.9375 16.601562.230469 5.054688 3.164063 7.933594 8.882813 7.457032 14.832031 0 .0625-.101563.796875-.109375.847656-.414063 4.398438 2.609375 8.382813 6.960937 9.164063 4.347656.78125 8.574219-1.898437 9.71875-6.164063 1.941406-7.820312 9.394532-12.976562 17.398438-12.035156s14.058594 7.6875 14.128906 15.746094c-.058594 1.753906-.375 3.484375-.945312 5.144531-1.058594 3.535157.4375 7.339844 3.625 9.203125 3.1875 1.863282 7.238281 1.304688 9.800781-1.355468 4.492187-4.753907 11.429687-6.28125 17.503906-3.851563 6.070313 2.425781 10.042969 8.320313 10.015625 14.859375.003906 1.925781-.339844 3.839844-1.007812 5.648438-.832032 2.195312-2.140626 4.179687-3.832032 5.808593-2.992187 2.894531-3.265625 7.601563-.625 10.824219.351563.429688.679688.886719 1.015625 1.359375l.800781 1.152344c2.546876 3.398437 7.304688 4.21875 10.839844 1.863281 2.285156-1.535156 4.941406-2.429688 7.6875-2.59375.28125 0 .800782 0 1.082032-.0625 4.296874.023438 8.40625 1.765625 11.410156 4.839844 3.003906 3.070312 4.65625 7.214844 4.589844 11.511718-.207032 3.386719-1.351563 6.648438-3.304688 9.425782-.101562.121094-.191406.25-.273438.382812-.246093.359375-.566406.6875-.796874 1.039063-12.503907-5.503907-27.132813-2.265625-36.144532 8-5.984375-6.84375-14.632812-10.769531-23.722656-10.769531s-17.734375 3.925781-23.71875 10.769531c-6.117188-7.003907-15.023438-10.933594-24.320312-10.734375-6.707032-.019532-13.242188 2.117187-18.640626 6.09375-1.839843 1.363281-3.53125 2.917968-5.039062 4.640625-6.117188-7.003907-15.023438-10.933594-24.320312-10.734375-6.707032-.019532-13.242188 2.117187-18.640626 6.09375-1.839843 1.363281-3.53125 2.917968-5.039062 4.640625-1.5-1.71875-3.1875-3.269531-5.023438-4.625-13.210937-9.703125-31.652343-7.6875-42.457031 4.640625-.480469-.542969-.871093-1.152344-1.390625-1.664063-1.097656-1.074219-2.269531-2.070312-3.511718-2.976562-9.113282-6.445313-20.914063-7.730469-31.203126-3.390625-2.644531-3.148438-4.195312-7.074219-4.414062-11.183594 0-8.835938 7.164062-16 16-16zm0 0"/><path d="m224 160.480469h16c0-17.671875-14.328125-32-32-32v16c8.835938 0 16 7.164062 16 16zm0 0"/><path d="m472 336h-464c-4.417969 0-8 3.582031-8 8v128c0 4.417969 3.582031 8 8 8h136c2.121094 0 4.15625-.84375 5.65625-2.34375l18.34375-18.34375 18.34375 18.34375c1.5 1.5 3.535156 2.34375 5.65625 2.34375h160c3.230469 0 6.140625-1.941406 7.382812-4.921875l32.617188-78.277344c3.8125-9.152343 13.558594-14.339843 23.277344-12.398437 9.722656 1.945312 16.722656 10.484375 16.722656 20.398437v67.199219c0 4.417969 3.582031 8 8 8h32c4.417969 0 8-3.582031 8-8v-128c0-4.417969-3.582031-8-8-8zm-298.34375 106.34375c-3.125-3.121094-8.1875-3.121094-11.3125 0l-21.65625 21.65625h-124.6875v-112h304v112h-124.6875zm290.34375 21.65625h-16v-59.199219c-.003906-17.542969-12.382812-32.640625-29.582031-36.082031-17.203125-3.4375-34.4375 5.738281-41.1875 21.929688l-30.566407 73.351562h-10.664062v-112h128zm0 0"/><path d="m296 368h-96c-4.417969 0-8 3.582031-8 8v64c0 4.417969 3.582031 8 8 8h96c4.417969 0 8-3.582031 8-8v-64c0-4.417969-3.582031-8-8-8zm-8 64h-80v-48h80zm0 0"/><path d="m136 368h-96c-4.417969 0-8 3.582031-8 8v64c0 4.417969 3.582031 8 8 8h96c4.417969 0 8-3.582031 8-8v-64c0-4.417969-3.582031-8-8-8zm-8 64h-80v-48h80zm0 0"/></svg>